<?xml version="1.0" standalone="no"?>
<!DOCTYPE svg PUBLIC "-//W3C//DTD SVG 20010904//EN"
 "http://www.w3.org/TR/2001/REC-SVG-20010904/DTD/svg10.dtd">
<svg version="1.0" xmlns="http://www.w3.org/2000/svg"
 width="512.000000pt" height="512.000000pt" viewBox="0 0 512.000000 512.000000"
 preserveAspectRatio="xMidYMid meet">

<g transform="translate(0.000000,512.000000) scale(0.100000,-0.100000)"
fill="currentColor" stroke="none">
<path d="M2325 5105 c-22 -8 -41 -15 -43 -15 -2 0 -10 -16 -18 -35 -10 -24
-14 -77 -15 -177 0 -79 -4 -181 -8 -227 -6 -76 -9 -85 -38 -111 -17 -15 -80
-46 -139 -70 -232 -89 -365 -170 -500 -305 -198 -198 -294 -443 -294 -756 0
-287 80 -481 284 -685 175 -174 364 -285 776 -452 352 -144 440 -192 539 -296
111 -118 136 -266 69 -406 -88 -181 -367 -278 -683 -236 -228 30 -434 91 -660
195 -115 53 -134 58 -166 41 -31 -17 -55 -76 -118 -294 -77 -264 -86 -314 -67
-359 43 -103 332 -218 733 -291 79 -15 154 -31 167 -37 43 -20 49 -51 55 -279
9 -316 -3 -305 331 -305 338 0 323 -15 330 330 3 167 9 247 18 262 22 39 75
70 177 103 325 105 573 314 715 603 213 434 126 932 -225 1282 -155 156 -329
255 -760 435 -303 126 -423 192 -514 282 -148 147 -128 348 45 464 94 63 172
79 374 78 244 -2 409 -36 642 -135 64 -27 131 -49 150 -49 67 0 85 40 188 399
59 209 60 235 4 287 -57 54 -305 142 -504 179 -187 34 -232 48 -254 78 -19 26
-22 47 -27 216 -6 210 -18 253 -74 281 -44 22 -433 26 -490 5z"/>
</g>
</svg>
