<?xml version="1.0" standalone="no"?>
<!DOCTYPE svg PUBLIC "-//W3C//DTD SVG 20010904//EN"
 "http://www.w3.org/TR/2001/REC-SVG-20010904/DTD/svg10.dtd">
<svg version="1.0" xmlns="http://www.w3.org/2000/svg"
 width="512.000000pt" height="512.000000pt" viewBox="0 0 512.000000 512.000000"
 preserveAspectRatio="xMidYMid meet">

<g transform="translate(0.000000,512.000000) scale(0.100000,-0.100000)"
fill="#000000" stroke="none">
<path d="M2261 5099 c-300 -33 -642 -141 -905 -285 -741 -405 -1225 -1116
-1338 -1964 -19 -142 -16 -499 6 -645 145 -991 838 -1802 1786 -2088 270 -82
502 -112 805 -104 334 8 596 61 894 178 91 36 306 143 340 168 l24 18 -138
229 c-75 126 -139 231 -141 233 -3 3 -53 -20 -112 -51 -483 -252 -1047 -296
-1571 -122 -714 238 -1242 881 -1342 1634 -16 119 -16 378 0 490 53 385 206
743 438 1030 83 102 260 273 360 347 370 275 801 409 1253 390 896 -38 1677
-625 1884 -1417 71 -270 80 -614 22 -842 -62 -245 -225 -444 -420 -515 -59
-21 -154 -34 -203 -27 -39 6 -44 10 -53 43 -6 23 -10 368 -10 959 l0 922 -211
0 -212 0 -66 49 c-271 198 -581 290 -941 278 -242 -8 -410 -49 -618 -149 -413
-200 -689 -559 -789 -1028 -26 -121 -26 -459 0 -577 63 -286 183 -509 382
-708 209 -210 451 -338 768 -407 87 -19 133 -22 312 -22 228 0 338 15 504 71
117 39 288 124 372 185 l76 55 45 -48 c124 -131 302 -189 537 -176 305 17 589
165 787 410 241 300 348 662 331 1117 -15 378 -82 658 -232 965 -359 738
-1085 1252 -1965 1390 -124 20 -531 28 -659 14z m415 -1663 c92 -20 164 -47
257 -97 106 -58 184 -125 272 -231 l75 -92 0 -464 0 -464 -45 -58 c-24 -32
-80 -90 -122 -130 -121 -112 -252 -179 -418 -216 -105 -23 -338 -23 -445 0
-296 65 -513 227 -630 471 -71 148 -85 210 -85 395 0 132 3 167 23 234 105
364 381 604 767 667 71 11 267 3 351 -15z"/>
</g>
</svg>
