<svg version="1.1" id="Layer_1" xmlns="http://www.w3.org/2000/svg" xmlns:xlink="http://www.w3.org/1999/xlink" x="0px" y="0px" width="100%" viewBox="0 0 140 120" enable-background="new 0 0 140 120" xml:space="preserve">

<path fill="#F1B910" opacity="1.000000" stroke="none" d="
M26.583334,1.000000 
	C29.486410,7.632266 31.827013,14.323682 34.488739,20.884827 
	C40.553894,35.835423 47.022659,50.628189 52.774036,65.696312 
	C54.347202,69.817879 55.992474,69.244835 58.928967,68.036003 
	C69.711060,63.597443 80.517601,59.216137 91.358971,54.924503 
	C98.125854,52.245777 98.160469,52.335636 100.480705,58.911186 
	C100.693527,59.514317 100.926071,60.110485 101.400902,61.384563 
	C95.097282,63.958988 88.999084,66.727173 82.698387,68.911110 
	C79.309731,70.085670 78.276154,71.092430 79.891441,74.764648 
	C84.412331,85.042511 88.476913,95.521095 92.948296,106.475983 
	C103.235603,80.278641 113.324837,54.585712 123.439995,28.826773 
	C121.291214,28.113012 119.721924,27.591738 117.836418,26.965429 
	C123.324501,22.421392 128.336258,18.275297 133.343826,14.124143 
	C135.982132,11.937049 137.373413,12.753410 138.032959,15.922943 
	C138.714020,19.195868 139.577606,22.430813 140.680664,25.341187 
	C141.000000,28.030594 141.000000,31.061188 140.623367,34.545029 
	C138.666962,34.327587 137.087189,33.656895 135.848862,33.131165 
	C126.301064,55.972950 116.817505,78.506752 107.478340,101.100243 
	C104.772797,107.645546 102.481308,114.362007 100.000000,121.000000 
	C95.975456,121.000000 91.950912,121.000000 87.812035,120.734329 
	C81.571068,105.895348 75.444435,91.322037 69.219276,76.514374 
	C67.262917,81.119537 65.317802,85.541809 63.497425,90.014839 
	C59.299431,100.330124 55.161999,110.670059 51.000000,121.000000 
	C47.307091,121.000000 43.614182,121.000000 39.449127,120.620346 
	C35.000526,110.869270 30.970247,101.520233 27.058910,92.121704 
	C19.110077,73.021492 11.241372,53.887886 3.257565,34.802380 
	C2.931599,34.023151 1.771483,33.592861 1.000000,33.000000 
	C1.000000,30.958334 1.000000,28.916666 1.436780,26.438618 
	C3.797953,25.711815 5.729066,25.459646 7.645335,25.122982 
	C11.582126,24.431335 14.494149,25.218174 15.050862,29.861357 
	C15.182056,30.955564 15.634082,32.029045 16.046690,33.069145 
	C23.709011,52.384262 31.374434,71.698181 39.072178,90.999199 
	C41.042702,95.940033 43.126316,100.835754 45.229366,105.924973 
	C48.887955,97.068810 52.345543,88.699188 56.084652,79.648109 
	C53.104862,81.001816 50.826157,82.037018 47.899673,83.366508 
	C37.184685,57.238361 26.600544,31.429289 16.136549,5.913185 
	C18.176195,4.204095 20.088099,2.602047 22.000000,1.000000 
	C23.388889,1.000000 24.777779,1.000000 26.583334,1.000000 
z" data-index="1" style="opacity: 1; visibility: visible;"></path>

<path fill="#000000" opacity="1.000000" stroke="none" d="
M1.000000,33.468658 
	C1.771483,33.592861 2.931599,34.023151 3.257565,34.802380 
	C11.241372,53.887886 19.110077,73.021492 27.058910,92.121704 
	C30.970247,101.520233 35.000526,110.869270 38.988487,120.620346 
	C26.377472,121.000000 13.754944,121.000000 1.000000,121.000000 
	C1.000000,91.979233 1.000000,62.958275 1.000000,33.468658 
z" data-index="3" style="opacity: 1; visibility: hidden; fill: rgb(121, 40, 202);"></path>

<path fill="#000000" opacity="1.000000" stroke="none" d="
M51.468658,121.000000 
	C55.161999,110.670059 59.299431,100.330124 63.497425,90.014839 
	C65.317802,85.541809 67.262917,81.119537 69.219276,76.514374 
	C75.444435,91.322037 81.571068,105.895348 87.348846,120.734329 
	C75.312439,121.000000 63.624878,121.000000 51.468658,121.000000 
z" data-index="5" style="opacity: 1; visibility: hidden; fill: rgb(121, 40, 202);"></path>
</svg>